<svg width="40" height="40" fill="none" xmlns="http://www.w3.org/2000/svg"><path d="M30.781 18.835a.781.781 0 0 0-.781.781v.117a.781.781 0 1 0 1.563 0v-.117a.781.781 0 0 0-.782-.781z" fill="#7772F1"/><path d="M35.781 14.678V6.726a2.894 2.894 0 0 0-2.89-2.891c-.67 0-1.286.23-1.776.612l-8.36 3.131a.781.781 0 1 0 .548 1.464l6.704-2.512c-.004.065-.007.13-.007.195v9.063a.781.781 0 0 0 1.562 0V6.725a1.33 1.33 0 0 1 1.329-1.328 1.33 1.33 0 0 1 1.328 1.328v25.782a1.33 1.33 0 0 1-1.328 1.328 1.33 1.33 0 0 1-1.329-1.328v-9.453a.781.781 0 1 0-1.562 0v9.453c0 .065.003.13.007.195l-19.695-7.377V13.908l7.93-2.97a.781.781 0 1 0-.548-1.464L9.39 12.585H4.61A4.615 4.615 0 0 0 0 17.195v4.843a4.614 4.614 0 0 0 4.46 4.606l3.443 9.02a.781.781 0 0 0 .73.502h4.531a.781.781 0 0 0 .73-1.06l-3.015-7.9 20.236 7.58c.49.383 1.107.612 1.776.612a2.894 2.894 0 0 0 2.89-2.891v-7.952A5.008 5.008 0 0 0 40 19.616a5.008 5.008 0 0 0-4.219-4.938zM4.61 25.085a3.05 3.05 0 0 1-3.046-3.047v-4.844a3.05 3.05 0 0 1 3.046-3.046h4.14v10.937H4.61zm7.42 9.518H9.172l-3.037-7.956h2.86l3.036 7.956zm23.752-11.64v-6.694a3.443 3.443 0 0 1 2.657 3.347 3.443 3.443 0 0 1-2.657 3.347z" fill="#7772F1"/><path d="M21.07 8.698a.787.787 0 0 0-.551-.23.787.787 0 0 0-.553.23.787.787 0 0 0-.229.552.787.787 0 0 0 .781.781.787.787 0 0 0 .553-.229.787.787 0 0 0 .229-.552.787.787 0 0 0-.23-.552zM5.709 17.163a.784.784 0 0 0-1.105 0 .787.787 0 0 0-.229.552.79.79 0 0 0 .229.552.787.787 0 0 0 .552.23.787.787 0 0 0 .553-.23.787.787 0 0 0 .229-.552.786.786 0 0 0-.23-.552zm.854 4.25h-2.5a.781.781 0 1 0 0 1.563h2.5a.781.781 0 0 0 0-1.563z" fill="#7772F1"/></svg>